HIERARCHY
ROOT Hips
{
  OFFSET 5.72205e-005 65.662 3.42586
  CHANNELS 6 Xposition Yposition Zposition Zrotation Xrotation Yrotation
  JOINT Chest
  {
    OFFSET 0 8.7983 -4.7612
    CHANNELS 3 Zrotation Xrotation Yrotation
    JOINT Chest2
    {
      OFFSET 0 8.0291 0.4195
      CHANNELS 3 Zrotation Xrotation Yrotation
      JOINT Chest3
      {
        OFFSET 0 9.9351 -2.2114
        CHANNELS 3 Zrotation Xrotation Yrotation
        JOINT Neck
        {
          OFFSET 0 22.3885 -0.4656
          CHANNELS 3 Zrotation Xrotation Yrotation
          JOINT Head
          {
            OFFSET -0.0001 12.643 3.4389
            CHANNELS 3 Zrotation Xrotation Yrotation
            End Site
            {
              OFFSET 0.0001 17.6655 0.5274
            }
          }
        }
        JOINT LeftCollar
        {
          OFFSET 2.2603 21.606 7.4023
          CHANNELS 3 Zrotation Xrotation Yrotation
          JOINT LeftShoulder
          {
            OFFSET 13.5163 -1.1332 -5.0146
            CHANNELS 3 Zrotation Xrotation Yrotation
            JOINT LeftElbow
            {
              OFFSET -0.0995 -28.05 -0.2431
              CHANNELS 3 Zrotation Xrotation Yrotation
              JOINT LeftWrist
              {
                OFFSET 0.0679 -23.3996 -0.1402
                CHANNELS 3 Zrotation Xrotation Yrotation
                JOINT LeftFinger1
                {
                  OFFSET 0.7932 -9.069 2.5189
                  CHANNELS 3 Zrotation Xrotation Yrotation
                  JOINT LeftFinger11
                  {
                    OFFSET -0.8272 -3.3923 0.5977
                    CHANNELS 3 Zrotation Xrotation Yrotation
                    JOINT LeftFinger12
                    {
                      OFFSET -0.5649 -2.3158 0.4082
                      CHANNELS 3 Zrotation Xrotation Yrotation
                      End Site
                      {
                        OFFSET -0.4919 -1.6479 0.2673
                      }
                    }
                  }
                }
                JOINT LeftFinger2
                {
                  OFFSET 0.9159 -9.2044 0.2193
                  CHANNELS 3 Zrotation Xrotation Yrotation
                  JOINT LeftFinger21
                  {
                    OFFSET 0.0117 -4.1944 -0.0248
                    CHANNELS 3 Zrotation Xrotation Yrotation
                    JOINT LeftFinger22
                    {
                      OFFSET 0.0071 -2.3249 -0.0142
                      CHANNELS 3 Zrotation Xrotation Yrotation
                      End Site
                      {
                        OFFSET -0.1475 -2.0882 0.0028
                      }
                    }
                  }
                }
                JOINT LeftFinger3
                {
                  OFFSET 0.6113 -8.7231 -2.0637
                  CHANNELS 3 Zrotation Xrotation Yrotation
                  JOINT LeftFinger31
                  {
                    OFFSET -0.1927 -3.8059 -0.2383
                    CHANNELS 3 Zrotation Xrotation Yrotation
                    JOINT LeftFinger32
                    {
                      OFFSET -0.1091 -2.1688 -0.1362
                      CHANNELS 3 Zrotation Xrotation Yrotation
                      End Site
                      {
                        OFFSET -0.2358 -1.9176 -0.0906
                      }
                    }
                  }
                }
                JOINT LeftFinger4
                {
                  OFFSET -0.6151 -8.0947 -3.5641
                  CHANNELS 3 Zrotation Xrotation Yrotation
                  JOINT LeftFinger41
                  {
                    OFFSET -0.4882 -2.341 -0.6462
                    CHANNELS 3 Zrotation Xrotation Yrotation
                    JOINT LeftFinger42
                    {
                      OFFSET -0.3575 -1.7167 -0.4742
                      CHANNELS 3 Zrotation Xrotation Yrotation
                      End Site
                      {
                        OFFSET -0.4187 -1.5237 -0.3496
                      }
                    }
                  }
                }
                JOINT LeftFinger0
                {
                  OFFSET -1.42 -1.8761 1.4223
                  CHANNELS 3 Zrotation Xrotation Yrotation
                  JOINT LeftFinger01
                  {
                    OFFSET -1.1471 -3.4929 2.6334
                    CHANNELS 3 Zrotation Xrotation Yrotation
                    JOINT LeftFinger02
                    {
                      OFFSET -0.823 -2.3 1.6571
                      CHANNELS 3 Zrotation Xrotation Yrotation
                      End Site
                      {
                        OFFSET -0.5822 -1.6914 1.1582
                      }
                    }
                  }
                }
              }
            }
          }
        }
        JOINT RightCollar
        {
          OFFSET -2.2603 21.606 7.4023
          CHANNELS 3 Zrotation Xrotation Yrotation
          JOINT RightShoulder
          {
            OFFSET -13.5187 -1.1334 -5.0155
            CHANNELS 3 Zrotation Xrotation Yrotation
            JOINT RightElbow
            {
              OFFSET 0.0994 -28.0499 -0.2431
              CHANNELS 3 Zrotation Xrotation Yrotation
              JOINT RightWrist
              {
                OFFSET -0.0679 -23.3996 -0.1402
                CHANNELS 3 Zrotation Xrotation Yrotation
                JOINT RightFinger1
                {
                  OFFSET -0.7932 -9.0691 2.5189
                  CHANNELS 3 Zrotation Xrotation Yrotation
                  JOINT RightFinger11
                  {
                    OFFSET 0.8272 -3.3923 0.5977
                    CHANNELS 3 Zrotation Xrotation Yrotation
                    JOINT RightFinger12
                    {
                      OFFSET 0.565 -2.3158 0.4082
                      CHANNELS 3 Zrotation Xrotation Yrotation
                      End Site
                      {
                        OFFSET 0.4919 -1.6479 0.2673
                      }
                    }
                  }
                }
                JOINT RightFinger2
                {
                  OFFSET -0.916 -9.2044 0.2193
                  CHANNELS 3 Zrotation Xrotation Yrotation
                  JOINT RightFinger21
                  {
                    OFFSET -0.0117 -4.1944 -0.0248
                    CHANNELS 3 Zrotation Xrotation Yrotation
                    JOINT RightFinger22
                    {
                      OFFSET -0.0071 -2.3249 -0.0142
                      CHANNELS 3 Zrotation Xrotation Yrotation
                      End Site
                      {
                        OFFSET 0.1475 -2.0882 0.0028
                      }
                    }
                  }
                }
                JOINT RightFinger3
                {
                  OFFSET -0.6113 -8.7231 -2.0637
                  CHANNELS 3 Zrotation Xrotation Yrotation
                  JOINT RightFinger31
                  {
                    OFFSET 0.1927 -3.8059 -0.2383
                    CHANNELS 3 Zrotation Xrotation Yrotation
                    JOINT RightFinger32
                    {
                      OFFSET 0.1091 -2.1688 -0.1362
                      CHANNELS 3 Zrotation Xrotation Yrotation
                      End Site
                      {
                        OFFSET 0.2358 -1.9176 -0.0906
                      }
                    }
                  }
                }
                JOINT RightFinger4
                {
                  OFFSET 0.6151 -8.0947 -3.564
                  CHANNELS 3 Zrotation Xrotation Yrotation
                  JOINT RightFinger41
                  {
                    OFFSET 0.4882 -2.341 -0.6462
                    CHANNELS 3 Zrotation Xrotation Yrotation
                    JOINT RightFinger42
                    {
                      OFFSET 0.3574 -1.7166 -0.4742
                      CHANNELS 3 Zrotation Xrotation Yrotation
                      End Site
                      {
                        OFFSET 0.4187 -1.5237 -0.3496
                      }
                    }
                  }
                }
                JOINT RightFinger0
                {
                  OFFSET 1.4199 -1.8761 1.4221
                  CHANNELS 3 Zrotation Xrotation Yrotation
                  JOINT RightFinger01
                  {
                    OFFSET 1.1472 -3.4929 2.6336
                    CHANNELS 3 Zrotation Xrotation Yrotation
                    JOINT RightFinger02
                    {
                      OFFSET 0.8229 -2.3 1.6571
                      CHANNELS 3 Zrotation Xrotation Yrotation
                      End Site
                      {
                        OFFSET 0.5822 -1.6914 1.1582
                      }
                    }
                  }
                }
              }
            }
          }
        }
      }
    }
  }
  JOINT RightHip
  {
    OFFSET -9.412 3.9771 -0.7758
    CHANNELS 3 Zrotation Xrotation Yrotation
    JOINT RightKnee
    {
      OFFSET -0.7531 -40.938 0
      CHANNELS 3 Zrotation Xrotation Yrotation
      JOINT RightAnkle
      {
        OFFSET 0 -40.1986 0
        CHANNELS 3 Zrotation Xrotation Yrotation
        JOINT RightToe
        {
          OFFSET 0 -4.4182 9.239
          CHANNELS 3 Zrotation Xrotation Yrotation
          End Site
          {
            OFFSET 0 0 6.1981
          }
        }
      }
    }
  }
  JOINT LeftHip
  {
    OFFSET 9.4119 3.9773 -0.7758
    CHANNELS 3 Zrotation Xrotation Yrotation
    JOINT LeftKnee
    {
      OFFSET 0.7532 -40.9383 0
      CHANNELS 3 Zrotation Xrotation Yrotation
      JOINT LeftAnkle
      {
        OFFSET 0 -40.1986 0
        CHANNELS 3 Zrotation Xrotation Yrotation
        JOINT LeftToe
        {
          OFFSET 0 -4.4182 9.239
          CHANNELS 3 Zrotation Xrotation Yrotation
          End Site
          {
            OFFSET 0 0 6.1981
          }
        }
      }
    }
  }
}
MOTION
Frames:	4
Frame Time:	0.0333333
5.72205e-005 65.662 3.42586 0 0 -0 0 0 -0 0 0 -0 0 0 -0 0 0 -0 0 0 -0 0 0 -12.5014 88.1196 14.2451 10.6914 -0.00160068 -0.00239207 0.000740045 -8.4365e-005 7.00714e-005 -9.52055e-007 9.93923e-017 -1.98785e-016 -1.59028e-015 9.93923e-017 -5.96354e-016 -1.59028e-015 -9.93923e-017 -5.96354e-016 -1.59028e-015 9.93923e-017 -1.98785e-016 -1.59028e-015 -0.0128176 0.00232552 8.52707e-005 9.93923e-017 5.96354e-016 -0 9.93923e-017 -1.98785e-016 -1.59028e-015 -0.0160551 0.00299681 0.000857156 -2.48481e-016 0 3.18055e-015 9.93923e-017 -1.98785e-016 -1.59028e-015 -0.0125865 0.0031206 0.00282719 0 1.98785e-016 -0 9.93923e-017 -1.98785e-016 -1.59028e-015 9.93923e-017 -5.96354e-016 -1.59028e-015 -9.93923e-017 -5.96354e-016 -1.59028e-015 -0.865644 0.16582 7.03859 -88.0329 10.2057 -10.5567 0.0015593 -0.00248883 -0.000788628 7.87605e-005 4.10553e-005 1.24965e-005 -3.97569e-016 -7.95139e-016 3.18055e-015 -1.98785e-016 -3.97569e-016 3.18055e-015 -1.98785e-016 0 3.18055e-015 -3.97569e-016 -7.95139e-016 3.18055e-015 0.0129473 0.00231697 -8.70038e-005 9.93923e-017 -7.95139e-016 1.59028e-015 -3.97569e-016 -7.95139e-016 3.18055e-015 0.0163314 0.00303369 -0.000872333 3.97569e-016 7.95139e-016 -3.18055e-015 -3.97569e-016 -7.95139e-016 3.18055e-015 0.0145763 0.00367772 -0.00326275 9.93923e-017 -3.97569e-016 -0 -3.97569e-016 -7.95139e-016 3.18055e-015 -1.98785e-016 -3.97569e-016 3.18055e-015 -1.98785e-016 0 3.18055e-015 3.42482 1.32465 -0.0626183 0.000117508 0.717283 0.000978199 -3.4257 -2.04197 -0.0604716 6.47761e-025 0 -0 -3.42483 1.34017 0.0627307 -0.000193936 0.682302 -0.0013703 3.42574 -2.02253 0.0595886 -8.45714e-024 0 -7.40531e-025 
7.5151 12.2657 -21.2223 -3.21249e-007 5.87362e-008 -67.0038 -0.101843 2.41872 5.68201 -0.443706 4.81542 11.3835 -0.443709 4.81543 11.3835 -0.15535 0.732698 -0.0427459 0.0192253 -0.15212 -0.0052231 -13.8883 6.10094 -72.9698 75.9824 -17.9305 5.9224 -21.6208 -37.6236 -15.1273 2.24734 0.291717 -30.9374 -1.27198e-006 -1.81935e-008 1.19702e-006 -4.19933e-015 1.73937e-015 -7.95139e-016 -4.29251e-015 1.39149e-015 -7.95139e-016 -1.27198e-006 -1.81935e-008 1.19702e-006 -0.0128275 0.00232564 8.55638e-005 2.3233e-015 1.98785e-016 7.95139e-016 -1.27198e-006 -1.81935e-008 1.19702e-006 -0.0160217 0.00299007 0.000855795 2.76435e-015 -9.93923e-017 -7.95139e-016 -1.27198e-006 -1.81935e-008 1.19702e-006 -0.0126238 0.00312997 0.00283434 8.87125e-006 -1.2608e-006 4.76993e-007 -1.27198e-006 -1.81935e-008 1.19702e-006 -4.19933e-015 1.73937e-015 -7.95139e-016 -4.29251e-015 1.39149e-015 -7.95139e-016 30.192 3.26295 26.7831 -68.3381 -13.2478 -8.48981 8.7148 -22.6962 1.27011 -27.4762 10.2662 -29.7529 4.77083e-015 1.03368e-014 -0 3.18817e-006 4.88672e-006 3.95914e-006 -1.59028e-015 8.74653e-015 -6.36111e-015 4.77083e-015 1.03368e-014 -0 0.0129598 0.00231124 -9.93454e-005 8.6924e-006 2.35065e-005 1.27503e-005 4.77083e-015 1.03368e-014 -0 0.0163379 0.00303483 -0.00087765 -7.95139e-015 1.59028e-014 -0 4.77083e-015 1.03368e-014 -0 0.0145784 0.00366836 -0.00326157 -1.59028e-015 3.18055e-015 3.18055e-015 4.77083e-015 1.03368e-014 -0 3.18817e-006 4.88672e-006 3.95914e-006 -1.59028e-015 8.74653e-015 -6.36111e-015 -28.9618 -43.3071 -24.0517 -167.327 25.5451 171.619 -9.96414 42.1043 -6.28939 -6.07821e-006 5.57743e-006 -9.79262e-006 58.3194 -17.563 51.8961 176.48 21.5651 -172.112 4.87477 41.5392 9.54663 1.79088e-006 4.50035e-006 -5.80763e-006 
7.5151 12.2657 -21.2223 -6.70077e-008 3.61143e-007 -67.0038 -0.0847951 2.38269 5.67854 -0.405897 4.74525 11.3753 -0.4059 4.74526 11.3754 -0.314512 1.45794 -0.0450159 0.0409184 -0.301584 -0.00626121 -13.8399 6.21348 -72.6366 75.9824 -17.9305 5.9224 -21.7916 -37.7861 -15.2402 2.05201 0.525516 -30.9588 2.43511e-015 2.44505e-014 7.95139e-016 7.65109e-009 2.14379e-007 -8.48385e-007 -9.69075e-016 6.95746e-016 -0 2.43511e-015 2.44505e-014 7.95139e-016 -0.012813 0.00232372 8.41516e-005 -4.47266e-015 -9.93923e-017 1.59028e-015 2.43511e-015 2.44505e-014 7.95139e-016 -0.0160637 0.00299907 0.000857594 8.63471e-015 1.98785e-016 -0 2.43511e-015 2.44505e-014 7.95139e-016 -0.0126072 0.00312948 0.00283035 6.58474e-016 -1.98785e-016 1.59028e-015 2.43511e-015 2.44505e-014 7.95139e-016 7.65109e-009 2.14379e-007 -8.48385e-007 -9.69075e-016 6.95746e-016 -0 30.1784 3.28805 26.6278 -68.1251 -13.3639 -8.43178 9.96614 -22.6675 1.78743 -29.8229 10.388 -29.1644 9.00245e-006 2.87247e-005 7.63599e-006 4.23837e-007 -2.56143e-007 -3.3637e-006 -3.18055e-015 -2.38542e-015 3.18055e-015 9.00245e-006 2.87247e-005 7.63599e-006 0.012926 0.00227668 -9.81814e-005 1.13361e-005 3.4226e-005 7.46045e-006 9.00245e-006 2.87247e-005 7.63599e-006 0.0163126 0.00300755 -0.000879759 3.68311e-006 6.68304e-006 -4.43382e-006 9.00245e-006 2.87247e-005 7.63599e-006 0.0146128 0.00368684 -0.00327012 1.34507e-006 4.64119e-006 -4.68642e-006 9.00245e-006 2.87247e-005 7.63599e-006 4.23837e-007 -2.56143e-007 -3.3637e-006 -3.18055e-015 -2.38542e-015 3.18055e-015 -28.9617 -43.3071 -24.0516 -167.327 25.5451 171.619 -9.96417 42.1042 -6.28941 2.9333e-006 -5.854e-006 -1.61803e-006 58.3194 -17.563 51.8962 176.48 21.5652 -172.111 4.87476 41.5392 9.54666 -8.60603e-006 1.33227e-007 -7.35756e-006 
7.5151 12.2657 -21.2223 5.33437e-007 6.74406e-007 -67.0038 -0.0677711 2.34664 5.6749 -0.368139 4.67504 11.3669 -0.368141 4.67506 11.3669 -0.473934 2.18417 -0.0452625 0.062614 -0.451046 -0.00727095 -13.7922 6.32631 -72.3035 75.9824 -17.9305 5.9224 -21.9631 -37.9482 -15.3538 1.85681 0.759395 -30.9795 4.89111e-009 1.30557e-010 -4.24213e-007 8.65956e-015 -1.98785e-016 7.95139e-016 2.29845e-015 -1.98785e-016 -0 4.89111e-009 1.30557e-010 -4.24213e-007 -0.0128163 0.00232411 8.47508e-005 -4.89771e-009 4.29726e-007 4.24213e-007 4.89111e-009 1.30557e-010 -4.24213e-007 -0.016059 0.00299867 0.000858119 -2.28602e-015 1.09332e-015 -0 4.89111e-009 1.30557e-010 -4.24213e-007 -0.0125569 0.00311567 0.00281959 8.9147e-006 -6.4021e-007 5.3948e-007 4.89111e-009 1.30557e-010 -4.24213e-007 8.65956e-015 -1.98785e-016 7.95139e-016 2.29845e-015 -1.98785e-016 -0 30.165 3.31318 26.4725 -67.9136 -13.4769 -8.37361 11.2204 -22.631 2.30492 -32.1823 10.4863 -28.5683 -2.33283e-006 -9.86525e-007 6.23666e-007 1.59028e-015 -7.15625e-015 -9.54166e-015 1.35838e-005 2.44375e-005 9.19051e-006 -2.33283e-006 -9.86525e-007 6.23666e-007 0.0129514 0.00231885 -8.76912e-005 3.23271e-006 -6.54486e-008 -1.95131e-006 -2.33283e-006 -9.86525e-007 6.23666e-007 0.016328 0.00304224 -0.000870481 2.38542e-015 3.18055e-015 3.18055e-015 -2.33283e-006 -9.86525e-007 6.23666e-007 0.0145813 0.00367941 -0.00326232 4.05786e-006 -1.75936e-006 -3.69008e-006 -2.33283e-006 -9.86525e-007 6.23666e-007 1.59028e-015 -7.15625e-015 -9.54166e-015 1.35838e-005 2.44375e-005 9.19051e-006 -28.9617 -43.307 -24.0516 -167.327 25.5452 171.619 -9.96416 42.1043 -6.28937 2.74637e-006 3.79737e-006 9.53015e-006 58.3194 -17.563 51.8961 176.48 21.5652 -172.112 4.87478 41.5393 9.54661 3.18055e-015 0 6.36111e-015 
